Coordinates
version=1
nRows=12
nColumns=24
inDegrees=yes

Units are S.I. units (second, meters, Newtons, ...)
Angles are in degrees.

endheader
time	pelvis_tilt	pelvis_list	pelvis_rotation	pelvis_tx	pelvis_ty	pelvis_tz	hip_flexion_r	hip_adduction_r	hip_rotation_r	knee_angle_r	ankle_angle_r	subtalar_angle_r	mtp_angle_r	hip_flexion_l	hip_adduction_l	hip_rotation_l	knee_angle_l	ankle_angle_l	subtalar_angle_l	mtp_angle_l	lumbar_extension	lumbar_bending	lumbar_rotation
      6.54000000	      6.56764072	     -1.63403009	     -3.87719235	     -1.77275532	      0.94000869	      0.19224388	     11.97134958	      2.43463354	     -2.13068165	    -63.70298465	    -11.51312187	    -16.03099970	      0.00000000	      1.48134536	      3.75669761	     -2.82778405	    -10.07171972	      5.86467149	     -6.94819051	      0.00000000	    -25.52699694	      2.35433015	     -1.92040745
      6.55000000	      6.52743799	     -1.85001459	     -3.65474934	     -1.76495518	      0.94096025	      0.19152113	     13.27951082	      2.77891778	     -2.29070252	    -63.64517190	     -9.08914553	    -16.28834949	      0.00000000	      0.82361816	      3.57490871	     -2.82955450	     -9.76881131	      6.23965968	     -6.57767584	      0.00000000	    -25.51710015	      2.79754669	     -2.35504489
      6.56000000	      6.46876163	     -2.10694951	     -3.40358152	     -1.75720142	      0.94184684	      0.19080643	     14.51405174	      3.16305272	     -2.48906949	    -63.26247882	     -6.94998360	    -16.44812708	      0.00000000	      0.19408205	      3.34737723	     -2.74764512	     -9.47722664	      6.62749936	     -6.26437111	      0.00000000	    -25.49157250	      3.28747156	     -2.76679682
      6.57000000	      6.40829991	     -2.34586414	     -3.14913207	     -1.74947142	      0.94262965	      0.19014463	     15.66575194	      3.51002740	     -2.72097789	    -62.59461807	     -5.04726215	    -16.50399491	      0.00000000	     -0.42266608	      3.13313517	     -2.69016142	     -9.18973819	      6.98049362	     -5.99239717	      0.00000000	    -25.45582340	      3.73136063	     -3.10905040
      6.58000000	      6.35623374	     -2.53231593	     -2.88009383	     -1.74175771	      0.94328023	      0.18950138	     16.72094668	      3.77236454	     -2.99541644	    -61.66075339	     -3.35217347	    -16.49932764	      0.00000000	     -1.02692449	      2.97211412	     -2.63139298	     -8.92655211	      7.30710522	     -5.75172971	      0.00000000	    -25.42392375	      4.10089078	     -3.40608204
      6.59000000	      6.30340087	     -2.72436062	     -2.55956168	     -1.73405283	      0.94380542	      0.18888216	     17.65968987	      4.03570382	     -3.30933765	    -60.41741193	     -2.10934243	    -16.70999864	      0.00000000	     -1.61695393	      2.80122533	     -2.41938524	     -8.68668460	      7.66358697	     -5.61269926	      0.00000000	    -25.39106825	      4.47407203	     -3.73453316
      6.60000000	      6.26837410	     -2.85517716	     -2.20531407	     -1.72634213	      0.94418952	      0.18826992	     18.47280142	      4.19709572	     -3.68823181	    -58.90699244	     -1.06184934	    -16.97380883	      0.00000000	     -2.20071420	      2.69091562	     -2.18222284	     -8.48102195	      8.00108882	     -5.52414518	      0.00000000	    -25.37183330	      4.76281105	     -4.03427509
      6.61000000	      6.25392744	     -2.94665322	     -1.81758095	     -1.71860561	      0.94446065	      0.18767816	     19.13751931	      4.30133979	     -4.10019083	    -57.10792247	     -0.23030797	    -17.27760958	      0.00000000	     -2.79650308	      2.61817672	     -1.86769077	     -8.29177804	      8.34398900	     -5.46059518	      0.00000000	    -25.36870348	      5.00125575	     -4.36001969
      6.62000000	      6.26595009	     -3.01279956	     -1.39006320	     -1.71084912	      0.94463783	      0.18709627	     19.63722001	      4.35366395	     -4.57569241	    -55.00817769	      0.37257838	    -17.66494174	      0.00000000	     -3.40837626	      2.56556311	     -1.48595643	     -8.12204958	      8.69818190	     -5.43346098	      0.00000000	    -25.39800957	      5.20721418	     -4.69505039
      6.63000000	      6.35801022	     -3.06350225	     -0.94358651	     -1.70303893	      0.94481226	      0.18655624	     19.89166810	      4.38440896	     -5.07742563	    -52.58046717	      0.70652213	    -18.20036199	      0.00000000	     -4.12162959	      2.52561190	     -1.01190374	     -7.92661522	      9.00007457	     -5.53162185	      0.00000000	    -25.52083676	      5.38332335	     -5.00228397
      6.64000000	      6.38493554	     -3.08147032	     -0.45297106	     -1.69519744	      0.94476841	      0.18601602	     20.07661465	      4.34518958	     -5.69438289	    -49.86791157	      0.95467615	    -18.56693702	      0.00000000	     -4.71922817	      2.50114082	     -0.56854385	     -7.81196735	      9.40677538	     -5.52590857	      0.00000000	    -25.55684867	      5.52822771	     -5.35410799
      6.65000000	      6.54089470	     -3.07998982	      0.02102694	     -1.68726852	      0.94479201	      0.18556661	     19.94732951	      4.31072080	     -6.29000021	    -46.82382846	      1.06413197	    -18.91861899	      0.00000000	     -5.48267709	      2.49066672	     -0.08608504	     -7.66078884	      9.72844389	     -5.63153838	      0.00000000	    -25.74603773	      5.62815076	     -5.62949185
